<svg width="1440" height="1024" viewBox="0 0 1440 1024" fill="none" xmlns="http://www.w3.org/2000/svg">
<g clip-path="url(#clip0_2993_89)">
<g filter="url(#filter0_f_2993_89)">
<path fill-rule="evenodd" clip-rule="evenodd" d="M201.872 322.007C393.99 323.328 441.146 521.968 569.883 626.781C685.985 721.308 891.628 770.5 908.403 897.244C925.746 1028.29 799.374 1154.21 649.188 1225.99C519.195 1288.12 355.775 1248.82 201.872 1234.92C75.8866 1223.53 -62.0506 1222.99 -147.502 1154.01C-230.574 1086.95 -212.061 987.877 -216.418 897.244C-221.036 801.177 -234.74 706.452 -173.091 621.672C-82.6175 497.252 9.92641 320.687 201.872 322.007Z" fill="#FF6614"/>
</g>
<g filter="url(#filter1_f_2993_89)">
<path fill-rule="evenodd" clip-rule="evenodd" d="M1644.72 29.7083C1853.56 46.0398 1757.75 363.91 1862.03 521.828C1925.91 618.555 2080 656.753 2126.63 759.445C2179.21 875.241 2168.95 999.446 2130.98 1114.1C2085.39 1251.75 2054.29 1438.38 1889.8 1474.53C1720 1511.84 1586.38 1304.56 1409.45 1272.65C1229.08 1240.12 1008.22 1407.82 879.281 1292.26C750.294 1176.66 893.442 996.222 938.356 850.451C966.363 759.554 1019.51 681.49 1089.43 610.231C1147.14 551.407 1246.79 537.595 1303.64 478.162C1438.91 336.748 1421.43 12.248 1644.72 29.7083Z" fill="#FF6614"/>
</g>
<g filter="url(#filter2_f_2993_89)">
<path fill-rule="evenodd" clip-rule="evenodd" d="M907.42 865.105C988.181 890.441 1043.8 941.028 1121.32 971.673C1220.33 1010.81 1393.01 986.511 1422 1068.52C1451.6 1152.27 1252.84 1190.53 1228.64 1275.27C1199.24 1378.21 1368.39 1503.43 1275.49 1581.5C1190.35 1653.05 1034.07 1540.32 907.42 1545.22C768.988 1550.58 631.291 1663.67 511.1 1611.1C393.646 1559.73 408.378 1424.81 397.121 1322.04C388.081 1239.51 436.165 1165.26 453.305 1083.48C474.981 980.059 394.398 836.04 510.704 780.11C629.763 722.857 777.22 824.259 907.42 865.105Z" fill="#009EB4"/>
</g>
<g filter="url(#filter3_n_2993_89)">
<rect width="1440" height="1024" fill="white" fill-opacity="0.15"/>
</g>
</g>
<defs>
<filter id="filter0_f_2993_89" x="-718.3" y="-175.3" width="2125.6" height="1932.6" filterUnits="userSpaceOnUse" color-interpolation-filters="sRGB">
<feFlood flood-opacity="0" result="BackgroundImageFix"/>
<feBlend mode="normal" in="SourceGraphic" in2="BackgroundImageFix" result="shape"/>
<feGaussianBlur stdDeviation="248.65" result="effect1_foregroundBlur_2993_89"/>
</filter>
<filter id="filter1_f_2993_89" x="186.865" y="-610.769" width="2615.73" height="2729.57" filterUnits="userSpaceOnUse" color-interpolation-filters="sRGB">
<feFlood flood-opacity="0" result="BackgroundImageFix"/>
<feBlend mode="normal" in="SourceGraphic" in2="BackgroundImageFix" result="shape"/>
<feGaussianBlur stdDeviation="319.9" result="effect1_foregroundBlur_2993_89"/>
</filter>
<filter id="filter2_f_2993_89" x="-243.8" y="123.2" width="2308.6" height="2141.6" filterUnits="userSpaceOnUse" color-interpolation-filters="sRGB">
<feFlood flood-opacity="0" result="BackgroundImageFix"/>
<feBlend mode="normal" in="SourceGraphic" in2="BackgroundImageFix" result="shape"/>
<feGaussianBlur stdDeviation="319.9" result="effect1_foregroundBlur_2993_89"/>
</filter>
<filter id="filter3_n_2993_89" x="0" y="0" width="1440" height="1024" filterUnits="userSpaceOnUse" color-interpolation-filters="sRGB">
<feFlood flood-opacity="0" result="BackgroundImageFix"/>
<feBlend mode="normal" in="SourceGraphic" in2="BackgroundImageFix" result="shape"/>
<feTurbulence type="fractalNoise" baseFrequency="2 2" stitchTiles="stitch" numOctaves="3" result="noise" seed="7835" />
<feColorMatrix in="noise" type="luminanceToAlpha" result="alphaNoise" />
<feComponentTransfer in="alphaNoise" result="coloredNoise1">
<feFuncA type="discrete" tableValues="1 1 1 1 1 1 1 1 1 1 1 1 1 1 1 1 1 1 1 1 1 1 1 1 1 1 1 1 1 1 1 1 1 1 1 1 1 1 1 1 1 1 1 1 1 1 1 1 1 1 1 0 0 0 0 0 0 0 0 0 0 0 0 0 0 0 0 0 0 0 0 0 0 0 0 0 0 0 0 0 0 0 0 0 0 0 0 0 0 0 0 0 0 0 0 0 0 0 0 0 "/>
</feComponentTransfer>
<feComposite operator="in" in2="shape" in="coloredNoise1" result="noise1Clipped" />
<feFlood flood-color="rgba(0, 0, 0, 0.45)" result="color1Flood" />
<feComposite operator="in" in2="noise1Clipped" in="color1Flood" result="color1" />
<feMerge result="effect1_noise_2993_89">
<feMergeNode in="shape" />
<feMergeNode in="color1" />
</feMerge>
</filter>
<clipPath id="clip0_2993_89">
<rect width="1440" height="1024" fill="white"/>
</clipPath>
</defs>
</svg>
