<svg width="1440" height="1024" viewBox="0 0 1440 1024" fill="none" xmlns="http://www.w3.org/2000/svg">
<g clip-path="url(#clip0_2997_75)">
<g filter="url(#filter0_f_2997_75)">
<path fill-rule="evenodd" clip-rule="evenodd" d="M201.872 322.007C393.99 323.328 441.146 521.968 569.883 626.781C685.985 721.308 891.628 770.5 908.403 897.244C925.746 1028.29 799.374 1154.21 649.188 1225.99C519.195 1288.12 355.775 1248.82 201.872 1234.92C75.8866 1223.53 -62.0506 1222.99 -147.502 1154.01C-230.574 1086.95 -212.061 987.877 -216.418 897.244C-221.036 801.177 -234.74 706.452 -173.091 621.672C-82.6175 497.252 9.92641 320.687 201.872 322.007Z" fill="#FF2814"/>
</g>
<g filter="url(#filter1_f_2997_75)">
<path fill-rule="evenodd" clip-rule="evenodd" d="M1644.72 29.7083C1853.56 46.0398 1757.75 363.91 1862.03 521.828C1925.91 618.555 2080 656.753 2126.63 759.445C2179.21 875.241 2168.95 999.446 2130.98 1114.1C2085.39 1251.75 2054.29 1438.38 1889.8 1474.53C1720 1511.84 1586.38 1304.56 1409.45 1272.65C1229.08 1240.12 1008.22 1407.82 879.281 1292.26C750.294 1176.66 893.442 996.222 938.356 850.451C966.363 759.554 1019.51 681.49 1089.43 610.231C1147.14 551.407 1246.79 537.595 1303.64 478.162C1438.91 336.748 1421.43 12.248 1644.72 29.7083Z" fill="#FF2814"/>
</g>
<rect width="1440" height="1024" fill="white" fill-opacity="0.1"/>
<g filter="url(#filter2_f_2997_75)">
<path fill-rule="evenodd" clip-rule="evenodd" d="M837.001 736.105C928.75 761.441 991.938 812.028 1080.01 842.673C1192.48 881.811 1388.66 857.511 1421.59 939.523C1455.22 1023.27 1229.42 1061.53 1201.93 1146.27C1168.53 1249.21 1360.69 1374.43 1255.15 1452.5C1158.42 1524.05 980.887 1411.32 837.001 1416.22C679.735 1421.58 523.304 1534.67 386.76 1482.1C253.326 1430.73 270.062 1295.81 257.274 1193.04C247.004 1110.51 301.629 1036.26 321.102 954.481C345.727 851.059 254.179 707.04 386.31 651.11C521.568 593.857 689.086 695.259 837.001 736.105Z" fill="#009EB4"/>
</g>
</g>
<defs>
<filter id="filter0_f_2997_75" x="-718.3" y="-175.3" width="2125.6" height="1932.6" filterUnits="userSpaceOnUse" color-interpolation-filters="sRGB">
<feFlood flood-opacity="0" result="BackgroundImageFix"/>
<feBlend mode="normal" in="SourceGraphic" in2="BackgroundImageFix" result="shape"/>
<feGaussianBlur stdDeviation="248.65" result="effect1_foregroundBlur_2997_75"/>
</filter>
<filter id="filter1_f_2997_75" x="186.865" y="-610.769" width="2615.73" height="2729.57" filterUnits="userSpaceOnUse" color-interpolation-filters="sRGB">
<feFlood flood-opacity="0" result="BackgroundImageFix"/>
<feBlend mode="normal" in="SourceGraphic" in2="BackgroundImageFix" result="shape"/>
<feGaussianBlur stdDeviation="319.9" result="effect1_foregroundBlur_2997_75"/>
</filter>
<filter id="filter2_f_2997_75" x="-383.8" y="-5.79999" width="2448.6" height="2141.6" filterUnits="userSpaceOnUse" color-interpolation-filters="sRGB">
<feFlood flood-opacity="0" result="BackgroundImageFix"/>
<feBlend mode="normal" in="SourceGraphic" in2="BackgroundImageFix" result="shape"/>
<feGaussianBlur stdDeviation="319.9" result="effect1_foregroundBlur_2997_75"/>
</filter>
<clipPath id="clip0_2997_75">
<rect width="1440" height="1024" fill="white"/>
</clipPath>
</defs>
</svg>
